<?xml version="1.0" encoding="UTF-8"?>
<svg xmlns="http://www.w3.org/2000/svg" xmlns:xlink="http://www.w3.org/1999/xlink" width="32px" height="32px" viewBox="0 0 32 32" version="1.1">
<g id="surface1">
<path style=" stroke:none;fill-rule:nonzero;fill:rgb(37.64706%,61.960787%,18.431373%);fill-opacity:1;" d="M 25.171875 17.492188 C 25.171875 18.4375 24.410156 19.199219 23.464844 19.199219 C 22.523438 19.199219 21.761719 18.4375 21.761719 17.492188 L 21.761719 14.507812 C 21.761719 12.148438 19.851562 10.238281 17.492188 10.238281 L 8.535156 10.238281 C 7.589844 10.238281 6.828125 9.476562 6.828125 8.535156 C 6.828125 7.589844 7.589844 6.828125 8.535156 6.828125 L 20.054688 6.828125 C 20.996094 6.828125 21.761719 6.0625 21.761719 5.121094 C 21.761719 4.175781 20.996094 3.414062 20.054688 3.414062 L 7.679688 3.414062 C 5.324219 3.414062 3.414062 5.324219 3.414062 7.679688 L 3.414062 27.308594 C 3.414062 28.011719 3.988281 28.585938 4.691406 28.585938 C 5.398438 28.585938 5.972656 29.160156 5.972656 29.867188 L 5.972656 30.292969 C 5.972656 31.234375 5.210938 32 4.265625 32 L 2.988281 32 C 1.335938 32 0 30.664062 0 29.011719 L 0 4.265625 C 0 1.910156 1.910156 0 4.265625 0 L 20.90625 0 C 23.261719 0 25.171875 1.910156 25.171875 4.265625 Z M 25.171875 17.492188 "/>
<path style=" stroke:none;fill-rule:nonzero;fill:rgb(37.64706%,61.960787%,18.431373%);fill-opacity:1;" d="M 32 27.734375 C 32 30.089844 30.089844 32 27.734375 32 L 11.09375 32 C 8.738281 32 6.828125 30.089844 6.828125 27.734375 L 6.828125 14.507812 C 6.828125 13.5625 7.589844 12.800781 8.535156 12.800781 C 9.476562 12.800781 10.238281 13.5625 10.238281 14.507812 L 10.238281 17.492188 C 10.238281 19.851562 12.148438 21.761719 14.507812 21.761719 L 23.464844 21.761719 C 24.410156 21.761719 25.171875 22.523438 25.171875 23.464844 C 25.171875 24.410156 24.410156 25.171875 23.464844 25.171875 L 11.945312 25.171875 C 11.003906 25.171875 10.238281 25.9375 10.238281 26.878906 C 10.238281 27.824219 11.003906 28.585938 11.945312 28.585938 L 24.320312 28.585938 C 26.675781 28.585938 28.585938 26.675781 28.585938 24.320312 L 28.585938 4.691406 C 28.585938 3.988281 28.011719 3.414062 27.308594 3.414062 C 26.601562 3.414062 26.027344 2.839844 26.027344 2.132812 L 26.027344 1.707031 C 26.027344 0.765625 26.789062 0 27.734375 0 L 29.011719 0 C 30.664062 0 32 1.335938 32 2.988281 Z M 32 27.734375 "/>
<path style=" stroke:none;fill-rule:evenodd;fill:rgb(37.64706%,61.960787%,18.431373%);fill-opacity:1;" d="M 16 12.585938 C 17.886719 12.585938 19.414062 14.113281 19.414062 16 C 19.414062 17.886719 17.886719 19.414062 16 19.414062 C 14.113281 19.414062 12.585938 17.886719 12.585938 16 C 12.585938 14.113281 14.113281 12.585938 16 12.585938 Z M 16 14.742188 C 15.304688 14.742188 14.742188 15.304688 14.742188 16 C 14.742188 16.695312 15.304688 17.257812 16 17.257812 C 16.695312 17.257812 17.257812 16.695312 17.257812 16 C 17.257812 15.304688 16.695312 14.742188 16 14.742188 Z M 16 14.742188 "/>
</g>
</svg>
